<svg width="1920" height="1080" viewBox="0 0 1920 1080" fill="none" xmlns="http://www.w3.org/2000/svg">
<rect width="1920" height="1080" fill="#F4F6F8"/>
<rect x="217" y="366" width="775" height="299" rx="8" fill="white"/>
<rect x="1034" y="366" width="407" height="299" rx="8" fill="white"/>
<rect x="1034" y="707" width="407" height="331" rx="8" fill="white"/>
<rect x="217" y="707" width="775" height="331" rx="8" fill="white"/>
<rect x="1483" y="366" width="399" height="672" rx="8" fill="white"/>
<rect x="217" y="143" width="297" height="186" rx="8" fill="white"/>
<rect x="559" y="143" width="297" height="186" rx="8" fill="white"/>
<rect x="901" y="143" width="297" height="186" rx="8" fill="white"/>
<rect x="1243" y="143" width="297" height="186" rx="8" fill="white"/>
<rect x="1585" y="143" width="297" height="186" rx="8" fill="white"/>
<rect x="45" y="45" width="127" height="990" rx="10" fill="white"/>
<path fill-rule="evenodd" clip-rule="evenodd" d="M82.7188 376.547H104.984C105.632 376.547 106.156 377.071 106.156 377.719V399.984C106.156 400.632 105.632 401.156 104.984 401.156H82.7188C82.0715 401.156 81.5469 400.632 81.5469 399.984V377.719C81.5469 377.071 82.0715 376.547 82.7188 376.547ZM124.05 374.691L137.309 387.95C137.766 388.407 137.766 389.149 137.309 389.607L124.05 402.865C123.593 403.323 122.851 403.323 122.393 402.865L109.135 389.607C108.677 389.149 108.677 388.407 109.135 387.95L122.393 374.691C122.851 374.234 123.593 374.234 124.05 374.691ZM82.7188 405.844H104.984C105.632 405.844 106.156 406.368 106.156 407.016V429.281C106.156 429.928 105.632 430.453 104.984 430.453H82.7188C82.0715 430.453 81.5469 429.928 81.5469 429.281V407.016C81.5469 406.368 82.0715 405.844 82.7188 405.844ZM112.016 405.844H134.281C134.928 405.844 135.453 406.368 135.453 407.016V429.281C135.453 429.928 134.928 430.453 134.281 430.453H112.016C111.368 430.453 110.844 429.928 110.844 429.281V407.016C110.844 406.368 111.368 405.844 112.016 405.844Z" fill="#1B4F9C"/>
<path d="M89.4531 605.75C88.6198 605.75 87.8646 605.411 87.1875 604.734C86.5104 604.057 86.1719 603.302 86.1719 602.469V594.266C86.1719 589.578 87.6302 585.438 90.5469 581.844C93.4635 578.25 97.2135 575.958 101.797 574.969C99.7135 576.427 98.099 578.262 96.9531 580.475C95.8073 582.687 95.2344 585.071 95.2344 587.625V602.469C95.2344 603.042 95.3125 603.615 95.4688 604.188C95.625 604.76 95.8854 605.281 96.25 605.75H89.4531ZM100.938 605.75C100.052 605.75 99.2844 605.425 98.6344 604.775C97.9844 604.125 97.6583 603.356 97.6562 602.469V587.625C97.6562 583.979 98.9458 580.88 101.525 578.328C104.104 575.776 107.216 574.5 110.859 574.5H125.625C129.271 574.5 132.37 575.776 134.922 578.328C137.474 580.88 138.75 583.979 138.75 587.625V592.625C138.75 596.271 137.474 599.37 134.922 601.922C132.37 604.474 129.271 605.75 125.625 605.75H100.938ZM112.5 567.937C109.063 567.937 106.146 566.74 103.75 564.344C101.354 561.948 100.156 559.031 100.156 555.594C100.156 552.156 101.354 549.24 103.75 546.844C106.146 544.448 109.063 543.25 112.5 543.25C115.938 543.25 118.854 544.448 121.25 546.844C123.646 549.24 124.844 552.156 124.844 555.594C124.844 559.031 123.646 561.948 121.25 564.344C118.854 566.74 115.938 567.937 112.5 567.937Z" fill="#F4F6F8"/>
<path fill-rule="evenodd" clip-rule="evenodd" d="M108.5 717.83C101.162 717.83 94.1236 720.745 88.9346 725.935C83.7455 731.124 80.8303 738.162 80.8303 745.5C80.8303 746.566 80.407 747.588 79.6535 748.341C78.9 749.095 77.8781 749.518 76.8125 749.518C75.7469 749.518 74.7249 749.095 73.9714 748.341C73.2179 747.588 72.7946 746.566 72.7946 745.5C72.7948 738.918 74.6141 732.465 78.0516 726.852C81.4892 721.24 86.4112 716.686 92.274 713.695C98.1368 710.704 104.712 709.392 111.274 709.903C117.836 710.415 124.128 712.73 129.457 716.593L133.036 713.02C133.565 712.491 134.232 712.121 134.961 711.951C135.689 711.781 136.451 711.817 137.16 712.057C137.869 712.296 138.497 712.729 138.973 713.306C139.449 713.883 139.755 714.582 139.855 715.323C140.675 721.377 140.798 724.843 140.391 730.709C140.33 731.576 139.99 732.4 139.421 733.057C138.853 733.714 138.086 734.17 137.237 734.354C136.388 734.539 135.501 734.443 134.711 734.082C133.921 733.72 133.269 733.112 132.854 732.348C130.483 727.955 126.968 724.285 122.68 721.729C118.392 719.173 113.492 717.826 108.5 717.83ZM111.848 746.427C111.849 746.179 111.918 745.936 112.049 745.725C112.179 745.514 112.366 745.343 112.587 745.232L123.329 739.864L125.295 738.879C125.474 738.785 125.673 738.736 125.875 738.734C126.077 738.732 126.277 738.778 126.458 738.868C126.639 738.958 126.796 739.089 126.917 739.251C127.038 739.413 127.119 739.601 127.154 739.8C127.925 744.68 127.582 749.904 126.264 754.505C126.106 754.999 125.809 755.436 125.407 755.764C120.961 759.482 117.682 761.362 113.525 762.675C113.33 762.735 113.123 762.748 112.921 762.713C112.72 762.677 112.53 762.595 112.366 762.472C112.203 762.35 112.07 762.19 111.98 762.006C111.89 761.823 111.845 761.62 111.848 761.416V746.427ZM105.152 746.427C105.151 746.179 105.082 745.936 104.951 745.725C104.821 745.514 104.634 745.343 104.412 745.232L91.7053 738.879C91.5256 738.785 91.3264 738.736 91.1239 738.735C90.9215 738.733 90.7215 738.779 90.5404 738.87C90.3592 738.96 90.2019 739.092 90.0813 739.254C89.9607 739.417 89.8802 739.606 89.8464 739.805C89.075 744.68 89.4178 749.904 90.7357 754.505C90.8936 754.999 91.1913 755.436 91.5928 755.764C96.0393 759.482 99.3178 761.362 103.475 762.675C104.316 762.943 105.152 762.3 105.152 761.421V746.427ZM109.1 739.489C108.914 739.583 108.708 739.631 108.5 739.631C108.292 739.631 108.086 739.583 107.9 739.489L96.0714 733.575C95.8681 733.478 95.6938 733.329 95.5662 733.143C95.4385 732.958 95.3618 732.742 95.3439 732.517C95.326 732.292 95.3675 732.067 95.4641 731.863C95.5608 731.66 95.7092 731.485 95.8946 731.357C97.0357 730.58 98.1285 729.943 99.2321 729.391C101.771 728.132 104.514 727.286 108.248 726.552C108.417 726.525 108.589 726.525 108.757 726.552C112.486 727.286 115.229 728.132 117.768 729.391C118.871 729.943 119.964 730.58 121.105 731.357C121.291 731.485 121.439 731.66 121.536 731.863C121.632 732.067 121.674 732.292 121.656 732.517C121.638 732.742 121.561 732.958 121.434 733.143C121.306 733.329 121.132 733.478 120.929 733.575L120.387 733.843L109.1 739.489ZM144.205 745.5C144.205 744.434 143.782 743.412 143.029 742.659C142.275 741.905 141.253 741.482 140.187 741.482C139.122 741.482 138.1 741.905 137.346 742.659C136.593 743.412 136.17 744.434 136.17 745.5C136.174 751.649 134.129 757.624 130.36 762.481C126.59 767.339 121.31 770.802 115.353 772.325C109.395 773.848 103.101 773.343 97.4623 770.89C91.824 768.438 87.1633 764.177 84.216 758.78C83.7987 758.019 83.1457 757.412 82.355 757.053C81.5642 756.694 80.6783 756.6 79.8299 756.787C78.9815 756.973 78.2164 757.429 77.6493 758.087C77.0821 758.745 76.7434 759.569 76.6839 760.436C76.2821 766.302 76.4053 769.768 77.2196 775.827C77.3195 776.569 77.625 777.269 78.1016 777.847C78.5781 778.425 79.2069 778.858 79.9167 779.098C80.6266 779.338 81.3893 779.374 82.1187 779.203C82.8481 779.032 83.5152 778.66 84.0446 778.13L87.6714 774.504C93.0065 778.335 99.2952 780.621 105.845 781.109C112.396 781.598 118.954 780.27 124.798 777.271C130.642 774.273 135.546 769.721 138.97 764.115C142.394 758.51 144.206 752.068 144.205 745.5Z" fill="#F4F6F8"/>
<g clip-path="url(#clip0_13_6)">
<path d="M145.897 133.312H132.501C120.799 133.312 111.313 142.798 111.313 154.5V167.896C129.782 166.526 144.527 151.781 145.897 133.312Z" fill="#F4F6F8"/>
<path d="M105.688 167.896V154.5C105.688 142.798 96.2021 133.312 84.5005 133.312H71.1044C72.4737 151.781 87.2194 166.526 105.688 167.896Z" fill="#F4F6F8"/>
<path d="M145.897 127.687C144.527 109.219 129.782 94.4729 111.313 93.1035V106.5C111.313 118.201 120.799 127.687 132.501 127.687H145.897Z" fill="#F4F6F8"/>
<path d="M105.688 93.1035C87.2194 94.4729 72.4737 109.219 71.1044 127.687H84.5005C96.2021 127.687 105.688 118.201 105.688 106.5V93.1035Z" fill="#F4F6F8"/>
<path d="M96.4681 130.5C101.667 127.902 105.903 123.666 108.5 118.467C111.098 123.666 115.334 127.902 120.533 130.5C115.334 133.097 111.098 137.334 108.5 142.532C105.903 137.334 101.667 133.097 96.4681 130.5Z" fill="#CA9352"/>
</g>
<defs>
<clipPath id="clip0_13_6">
<rect width="75" height="75" fill="white" transform="translate(71 93)"/>
</clipPath>
</defs>
</svg>
